<svg width="116" height="125" viewBox="0 0 116 125" fill="none" xmlns="http://www.w3.org/2000/svg">
<path d="M90.5 42L69 58L37 47.5L58.5 30.5L90.5 42Z" fill="#F6F0E7"/>
<path d="M57.5 31L36 47L4 36.5L25.5 19.5L57.5 31Z" fill="#4C97CB"/>
<path d="M112.5 25L91.5 41L60 29.5L81 13.5L112.5 25Z" fill="#FADC40"/>
<path d="M79.5 13L58 29.5L27 18.5L49 2L79.5 13Z" fill="#F6F0E7"/>
<path d="M68 90V59.5L36 49V78.5L68 90Z" fill="#CB4C4E"/>
<path d="M34 78.5V48L3 38V67L34 78.5Z" fill="#DD7327"/>
<path d="M34 109V79.5L3 68V98.5L34 109Z" fill="#66BC63"/>
<path d="M68 121.5V91L36 80.5V110L68 121.5Z" fill="#66BC63"/>
<path d="M91.5 73.5V43.5L70 59.5V89.5L91.5 73.5Z" fill="#DD7327"/>
<path d="M113.5 56.5V26.5L92 42.5V72.5L113.5 56.5Z" fill="#4C97CB"/>
<path d="M113.5 88.5V58.5L92 74.5V104.5L113.5 88.5Z" fill="#CB4C4E"/>
<path d="M91.5 105.5V75.5L70 91.5V121.5L91.5 105.5Z" fill="#CBB74C"/>
<path d="M90.5 42L69 58L37 47.5L58.5 30.5L90.5 42Z" stroke="black" stroke-width="3"/>
<path d="M57.5 31L36 47L4 36.5L25.5 19.5L57.5 31Z" stroke="black" stroke-width="3"/>
<path d="M112.5 25L91.5 41L60 29.5L81 13.5L112.5 25Z" stroke="black" stroke-width="3"/>
<path d="M79.5 13L58 29.5L27 18.5L49 2L79.5 13Z" stroke="black" stroke-width="3"/>
<path d="M68 90V59.5L36 49V78.5L68 90Z" stroke="black" stroke-width="3"/>
<path d="M34 78.5V48L3 38V67L34 78.5Z" stroke="black" stroke-width="3"/>
<path d="M34 109V79.5L3 68V98.5L34 109Z" stroke="black" stroke-width="3"/>
<path d="M68 121.5V91L36 80.5V110L68 121.5Z" stroke="black" stroke-width="3"/>
<path d="M91.5 73.5V43.5L70 59.5V89.5L91.5 73.5Z" stroke="black" stroke-width="3"/>
<path d="M113.5 56.5V26.5L92 42.5V72.5L113.5 56.5Z" stroke="black" stroke-width="3"/>
<path d="M113.5 88.5V58.5L92 74.5V104.5L113.5 88.5Z" stroke="black" stroke-width="3"/>
<path d="M91.5 105.5V75.5L70 91.5V121.5L91.5 105.5Z" stroke="black" stroke-width="3"/>
</svg>